<svg width="971" height="975" viewBox="0 0 971 975" fill="none" xmlns="http://www.w3.org/2000/svg">
<path d="M720.123 970.842L1456.28 214.241L720.123 970.842ZM558.212 812.487L14.7188 1368.5L558.212 812.487ZM525.645 892.945C525.849 955.948 577.075 1006 639.99 1004.89C702.907 1004.68 752.893 953.387 752.69 890.384C752.486 827.381 701.26 777.326 638.345 778.443C575.428 778.646 525.441 829.942 525.645 892.945Z" stroke="#6DCFF6" stroke-width="30" stroke-miterlimit="10"/>
<path d="M1146 1082L722 666" stroke="#1C82AA" stroke-width="29"/>
<path d="M695.435 367.076L1143.97 -86.9993" stroke="#1C82AA" stroke-width="29"/>
<path d="M1026.14 657.733C939.882 744.123 799.927 744.234 713.536 657.98C627.146 571.727 627.035 431.771 713.289 345.381C799.542 258.99 939.498 258.879 1025.89 345.133C1112.28 431.387 1112.39 571.342 1026.14 657.733Z" stroke="#1C82AB" stroke-width="30" stroke-miterlimit="10"/>
</svg>
